<svg width="89" height="22" viewBox="0 0 89 22" fill="none" xmlns="http://www.w3.org/2000/svg">
<g clip-path="url(#clip0_6928_98854)">
<path d="M36.6475 14.7342C34.94 16.7443 32.9571 17.543 30.9467 17.543C27.1461 17.543 24.1167 14.8166 24.1167 11.2365C24.1167 7.6838 27.0085 4.92981 30.8089 4.92981C32.8194 4.92981 34.8022 5.72849 36.5098 7.73886L33.976 9.52895C33.0672 8.23468 32.0207 7.71132 30.8089 7.71132C28.8536 7.71132 27.2563 9.28117 27.2563 11.2365C27.2563 13.2192 28.9913 14.7615 30.9467 14.7615C32.1584 14.7615 33.2325 14.2386 34.1689 13.054L36.6475 14.7342Z" fill="#228800"/>
<path d="M38.051 0H41.2182V17.2954H38.051V0Z" fill="#228800"/>
<path d="M49.5898 4.92981C53.3902 4.92981 56.4198 7.6838 56.4198 11.2365C56.4198 14.7892 53.3902 17.543 49.5898 17.543C45.7894 17.543 42.7324 14.7892 42.7324 11.2365C42.7324 7.6838 45.7894 4.92981 49.5898 4.92981ZM49.5898 14.8716C51.5726 14.8716 53.3902 13.2743 53.3902 11.2365C53.3902 9.19856 51.5726 7.60119 49.5898 7.60119C47.5794 7.60119 45.7894 9.19856 45.7894 11.2365C45.7894 13.2743 47.5794 14.8716 49.5898 14.8716Z" fill="#228800"/>
<path d="M55.9171 5.17761H59.6352L62.637 11.6497L65.8868 5.17761H69.3296L62.637 18.0391L55.9171 5.17761Z" fill="#228800"/>
<path d="M80.3142 15.9183C79.1023 16.9373 77.4225 17.543 75.6599 17.543C71.8595 17.543 68.8026 14.7892 68.8026 11.2365C68.8026 7.6838 71.5841 4.92981 75.3846 4.92981C79.1851 4.92981 81.6635 7.6838 81.6635 11.2365V12.1453H71.9696C72.4101 13.7426 73.9524 14.8716 75.6599 14.8716C76.7066 14.8716 77.6154 14.5412 78.4415 13.6875L80.3142 15.9183ZM78.3313 9.55649C77.863 8.45495 76.8168 7.60119 75.3846 7.60119C73.9802 7.60119 72.8234 8.37235 72.2449 9.55649H78.3313Z" fill="#228800"/>
<path d="M83.2167 10.4928C83.2167 7.60118 85.4198 5.17761 89 5.17761V8.0142C87.4577 8.0142 86.3563 8.95075 86.3563 10.8785V17.2954H83.2167V10.4928Z" fill="#228800"/>
<path d="M9.80714 5.67617C9.80714 2.97002 7.61074 0.772705 4.90264 0.772705C2.19517 0.772705 0.000244141 2.96722 0.000244141 5.67337C0.000244141 8.37949 2.19513 10.5796 4.90386 10.5796H9.80712L9.80714 5.67617Z" fill="#228800"/>
<path d="M11.1825 5.67617C11.1825 2.97002 13.3789 0.772705 16.087 0.772705C18.7945 0.772705 20.9894 2.96722 20.9894 5.67337C20.9894 8.37949 18.7945 10.5796 16.0858 10.5796L11.1825 10.5796L11.1825 5.67617Z" fill="#228800"/>
<path d="M11.1825 16.8587C11.1825 19.5675 13.3783 21.7621 16.0875 21.7621C18.7936 21.7621 20.9894 19.5691 20.9894 16.8603C20.9894 14.154 18.7937 11.9552 16.0858 11.9552L11.1825 11.9552V16.8587Z" fill="#228800"/>
<path d="M9.8069 16.8587C9.8069 19.5675 7.61113 21.7621 4.90198 21.7621C2.19579 21.7621 0 19.5691 0 16.8603C0 14.154 2.19575 11.9552 4.90364 11.9552H9.8069V16.8587ZM4.90198 20.3794C6.84808 20.3794 8.43136 18.8008 8.43136 16.8603V13.3315H4.90645C2.95948 13.3315 1.37537 14.9206 1.37537 16.8603C1.37537 18.8008 2.95734 20.3794 4.90198 20.3794V20.3794Z" fill="#228800"/>
</g>
<defs>
<clipPath id="clip0_6928_98854">
<rect width="89" height="21.8154" fill="white"/>
</clipPath>
</defs>
</svg>
